<svg xmlns="http://www.w3.org/2000/svg" viewBox="0 0 240.67 202.06"><defs><style>.cls-1,.cls-10{fill:#959595;}.cls-2{fill:#128a8c;}.cls-3{fill:#a4a3a3;}.cls-4{fill:#a3a2a3;}.cls-5{fill:#a6a6a6;}.cls-6{fill:#168a8c;}.cls-7{fill:#148b8c;}.cls-8{fill:#188b8c;}.cls-9{fill:#188b8d;}.cls-10{font-size:33.53px;font-family:Raleway-Medium, Raleway;letter-spacing:0.2em;}</style></defs><title>bitrain</title><g id="Layer_2" data-name="Layer 2"><g id="Layer_1-2" data-name="Layer 1"><path class="cls-1" d="M239.15,85.73c-.74.14-.82.73-.93,1.31-2.77,14.25-11.83,22.29-25.47,25.83-7.66,2-15.51,2.24-23.34,2.48-29.32.9-58.64.38-88,.32-20.38,0-40.76-.3-61.14-.51A34.54,34.54,0,0,1,30,113.56c-11.86-3.84-17.56-13.46-15.86-25.81,2.14-15.51,13.84-24.12,28.08-24.35a26.82,26.82,0,0,1,19,7.28c2.27,2.07,2.66,4.77.94,6.88A4.76,4.76,0,0,1,55,78,19,19,0,0,0,41.2,73.08c-9.75.31-16.82,7-17.63,16.71s4.61,15.38,14.85,15.57q15.78.28,31.57.41c11.7.09,23.4-.07,35.09.19,22.14.48,44.27.33,66.41.19,10.76-.07,21.54-.08,32.26-1.35A40.51,40.51,0,0,0,217,101.18,20,20,0,0,0,228.16,87.8c2.16-8.34,2.51-16.59-3-24-4.48-6-11.12-8.27-18.13-9.66-1.79-.36-3.68-.29-5.45-.73-2.21-.55-2.26.58-1.94,2.11a27.49,27.49,0,0,1,.32,6.49c-.09,3.13-2.19,5.18-5,5.08-2.68-.09-4.46-2.18-4.5-5.27-.16-11.32-3.27-21.59-12.12-29.13-9.19-7.83-19.83-11.76-32-8.62-7.11,1.83-12.66,6.24-17.14,12-2.12,2.73-5.09,3.39-7.33,1.64s-2.36-4.64-.38-7.35c.44-.61.94-1.17,1.43-1.74,3.09-3.6,3.15-3.63.6-7.6-4.17-6.48-10.41-9.8-17.8-10.93C90.42,7.82,77.57,12.68,66.91,23.69a5.34,5.34,0,0,0-.5.81c3.72.53,7.33.89,10.88,1.59a69.91,69.91,0,0,1,25.12,10.24c3,2,3.88,4.83,2.27,7.18-1.72,2.51-4.43,2.82-7.47.85A60.91,60.91,0,0,0,65.14,34.24c-20.79-.52-41.79,12.41-50.68,31.37A59.25,59.25,0,0,0,9.55,80.55a4.51,4.51,0,0,1-4.41,4.06A4.22,4.22,0,0,1,.43,81.35c-.48-1,.2-2.16-.43-3.13v-1.5A59.67,59.67,0,0,1,8.13,55.89c8.19-13.48,20-22.64,34.68-28.12a46.31,46.31,0,0,1,8.65-2.47,4,4,0,0,0,3-2C60.41,13.92,68.86,7.51,79,3.16A48.11,48.11,0,0,1,91.25,0h3.51a19.37,19.37,0,0,0,7,0h4.51A45.68,45.68,0,0,1,118.9,3.8a32.42,32.42,0,0,1,13.35,12.13c1,1.57,1.88,2.35,3.8,1.34,11.64-6.12,23.48-5.6,35.33-.72,11.45,4.72,20,12.55,25,24A3.63,3.63,0,0,0,199.94,43c8.91.64,17.55,2.28,25.27,7.17A30.06,30.06,0,0,1,238.3,67.32c.54,1.76.22,3.64.85,5.38V75.2a17.14,17.14,0,0,0,0,6.52Z"/><path class="cls-2" d="M240.67,111.53c-7.17,9.37-17.36,12.39-28.44,13.55a18.32,18.32,0,0,0-5.56,1.39c-2.86,1.27-4.49,3.24-4.31,6.6s0,6.51,0,9.77c0,2-.63,3.66-2.86,3.61-2-.05-2.68-1.59-2.64-3.53.07-3.17,0-6.35,0-9.52,0-6.29,2.63-10.13,8.53-12.37,3.41-1.3,7-1.37,10.56-2,5.49-.94,10.73-2.53,15.3-5.84a19.14,19.14,0,0,0,3.14-2.86c2.76-3.15,3.81-3.15,6.22.17Z"/><path class="cls-2" d="M192.3,196a5.66,5.66,0,0,1-1.52-4.29c.08-8.43,0-16.86,0-25.28,0-2.47,1.58-4,3.47-3.38a2.87,2.87,0,0,1,2,3.07c0,8.93,0,17.86,0,26.79,0,1.59-.93,2.36-2.05,3.09Z"/><path class="cls-3" d="M101.78,0a10.46,10.46,0,0,1-7,0Z"/><path class="cls-4" d="M239.15,81.72a9,9,0,0,1,0-6.52Z"/><path class="cls-5" d="M0,78.21c.91.94.37,2.08.43,3.13A.71.71,0,0,1,0,81.22Z"/><path class="cls-2" d="M191,139c0,2.59,0,5.17,0,7.76,0,3.69,1.66,5.7,5.33,6.37a29.65,29.65,0,0,1,4.17.79c5.24,1.77,7.65,5.83,8,11,.3,4.9.09,9.84,0,14.76,0,1.73-.94,3-2.73,2.94S203,181.4,203,179.52c0-4,0-8,.06-12,.09-5.27-1.64-8.39-7.35-8.93-6.62-.63-10.33-5.39-10.25-12q.09-7.88,0-15.77c0-2,.66-3.61,2.87-3.56s2.7,1.6,2.67,3.52c0,2.75,0,5.51,0,8.26Z"/><path class="cls-2" d="M88.26,145.47c0,4.59,0,9.19,0,13.78,0,2-.54,3.67-2.78,3.64s-2.75-1.69-2.74-3.69q.06-12.78,0-25.56c0-6.31-2-8.27-8.22-8.27-4.18,0-8.35,0-12.53,0-2,0-3.65-.59-3.6-2.81,0-2,1.59-2.71,3.52-2.7,4.76,0,9.52,0,14.28,0,7,.09,11.81,4.74,12,11.78.13,4.59,0,9.19,0,13.78Z"/><path class="cls-2" d="M147.92,133.56c0,3.09,0,6.18,0,9.27,0,6.19-3.32,9.77-9.51,10.42-4,.43-5.19,1.51-5.62,5.57-.24,2.32-.19,4.67-.24,7,0,1.87-.85,3.14-2.82,3.07s-2.61-1.31-2.55-3.07c.1-3.33-.35-6.69.56-10,1.45-5.21,4.4-7.66,9.79-8.06,3.66-.28,4.88-1.55,4.89-5.22q0-9.78,0-19.55c0-1.95.7-3.4,2.77-3.41,1.9,0,2.76,1.26,2.74,3.17C147.9,126.37,147.92,130,147.92,133.56Z"/><path class="cls-2" d="M117,155.79c-.27-2.41.49-5.16-.14-7.9-.72-3.12-1.84-4.17-5.06-4.52-7.3-.79-11.17-5.15-11.11-12.5,0-2.75,0-5.51,0-8.26,0-1.91.9-3.16,2.76-3.15s2.75,1.36,2.75,3.2c0,2.92,0,5.84,0,8.76,0,3.88,1.69,6.18,5.53,6.34,6.75.29,10.85,4.72,10.92,12.9,0,3.83-.13,7.67-.14,11.5,0,1.92-.57,3.39-2.73,3.39S117,164,117,162.12,117,158.12,117,155.79Z"/><path class="cls-2" d="M168.3,138.74c0-4.76,0-9.51,0-14.27,0-2,.24-3.79,2.67-4,1.82-.17,2.84,1.38,2.84,4.16q0,13.39,0,26.78c0,5.33,1,6.57,6.27,7.4,1.77.28,2.83,1.2,2.67,3s-1.47,2.49-3.19,2.5a10.76,10.76,0,0,1-11.19-10.75c-.18-4.91,0-9.84,0-14.76Z"/><path class="cls-2" d="M74.11,142.48c-.19,2.53.32,5.54-.35,8.52a10.91,10.91,0,0,1-11.92,8.47A2.64,2.64,0,0,1,59.2,157c-.13-1.7.9-2.6,2.48-2.92a9.78,9.78,0,0,1,1.25-.07c3.78-.27,5.61-2.13,5.67-5.9q.09-6.38,0-12.77c0-2,.46-3.68,2.72-3.68s2.85,1.64,2.81,3.64C74.07,137.51,74.11,139.76,74.11,142.48Z"/><path class="cls-2" d="M161.47,152.66c0,4.08,0,8.17,0,12.25,0,2-.45,3.68-2.69,3.73s-2.85-1.58-2.85-3.59q0-12.5,0-25c0-1.93.7-3.46,2.72-3.49,2.18,0,2.86,1.56,2.83,3.6C161.43,144.32,161.47,148.49,161.47,152.66Z"/><path class="cls-2" d="M46.79,131.27c0-2.5,0-5,0-7.51,0-1.91.88-3.38,2.95-3.28s2.58,1.52,2.57,3.35c0,4.59,0,9.19-.09,13.78-.06,2.41,1,3.66,3.32,3.73,2.05.06,3.47.82,3.46,3,0,1.78-1.77,2.74-4.18,2.48-5.2-.55-8.21-4-8.1-9.31,0-2.09,0-4.17,0-6.26Z"/><path class="cls-6" d="M41.73,171.44q0,5.38,0,10.76c0,2-.6,3.59-2.89,3.55s-2.66-1.57-2.65-3.47q.05-11,0-22c0-2,.76-3.36,2.83-3.31,1.91,0,2.71,1.39,2.71,3.24Q41.73,165.81,41.73,171.44Z"/><path class="cls-2" d="M108.75,158.43c0,3.51,0,7,0,10.52,0,1.92-.59,3.44-2.67,3.5-2.26.07-2.87-1.51-2.86-3.54,0-7.1,0-14.19,0-21.29,0-1.95.62-3.31,2.66-3.56,1.7-.2,2.85,1.28,2.86,3.59C108.76,151.25,108.75,154.84,108.75,158.43Z"/><path class="cls-2" d="M33.89,125.3c-7.43-.56-14-3.16-19.2-8.6-1.87-1.94-2.08-3.5-.57-4.73,1.81-1.48,3.17-.5,4.52.91a22.67,22.67,0,0,0,15.65,6.91c2.57.15,4,1.16,3.76,2.94C37.69,125.15,35.87,125.4,33.89,125.3Z"/><path class="cls-6" d="M131.26,131.75c0-2.92,0-5.85,0-8.77,0-1.76.71-3,2.51-3.12s2.94,1.12,2.95,3q.06,9,0,18a2.63,2.63,0,0,1-2.8,2.89c-1.77,0-2.65-1.21-2.65-3Q131.27,136.26,131.26,131.75Z"/><path class="cls-6" d="M92.14,141.89c0-2.83,0-5.66,0-8.49,0-2,.78-3.38,2.79-3.37,1.85,0,2.73,1.35,2.73,3.21,0,5.83,0,11.65,0,17.48,0,1.85-.93,3.13-2.82,3.11s-2.7-1.34-2.69-3.2C92.16,147.72,92.14,144.81,92.14,141.89Z"/><path class="cls-7" d="M33.15,141.4c0,2.41,0,4.83,0,7.24,0,1.81-.86,3.11-2.84,3.08s-2.67-1.37-2.66-3.2q0-7.12,0-14.24c0-1.83.69-3.2,2.66-3.22s2.84,1.44,2.85,3.34C33.17,136.73,33.15,139.07,33.15,141.4Z"/><path class="cls-7" d="M214.1,144.22c0,1.84,0,3.67,0,5.51a2.73,2.73,0,1,1-5.46,0c-.07-3.75-.06-7.51,0-11.27a2.73,2.73,0,1,1,5.46,0C214.14,140.38,214.1,142.3,214.1,144.22Z"/><path class="cls-7" d="M127,129.22c0,1.33,0,2.66,0,4a2.73,2.73,0,1,1-5.46.17c-.13-2.82-.13-5.66,0-8.48a2.6,2.6,0,0,1,2.91-2.75A2.56,2.56,0,0,1,127,125C127,126.39,127,127.81,127,129.22Z"/><path class="cls-8" d="M141.32,159.52c0-1.25,0-2.5,0-3.74a2.71,2.71,0,0,1,5.41-.15,78.57,78.57,0,0,1,0,8,2.72,2.72,0,0,1-5.45-.1C141.29,162.18,141.32,160.85,141.32,159.52Z"/><path class="cls-9" d="M111.19,126.64c0-.92,0-1.84,0-2.75a2.56,2.56,0,0,1,2.63-2.76,2.47,2.47,0,0,1,2.75,2.37,40,40,0,0,1,0,6.5,2.45,2.45,0,0,1-2.73,2.37,2.53,2.53,0,0,1-2.65-2.72C111.17,128.64,111.2,127.64,111.19,126.64Z"/><text class="cls-10" transform="translate(45.96 194.51)">bitrain</text></g></g></svg>