<svg xmlns="http://www.w3.org/2000/svg" viewBox="0 0 192.67 308.2"><defs><style>.cls-1{fill:#138a8b;}.cls-2,.cls-8{fill:#959494;}.cls-3{fill:#959594;}.cls-4{fill:#d3d1d0;}.cls-5{fill:#959595;}.cls-6{fill:#fff;}.cls-7{fill:#128a8c;}.cls-8{font-size:23.94px;font-family:Raleway-Medium, Raleway;letter-spacing:0.2em;}.cls-9{letter-spacing:0.19em;}.cls-10{letter-spacing:0.2em;}</style></defs><title>consultree</title><g id="Layer_2" data-name="Layer 2"><g id="Layer_1-2" data-name="Layer 1"><path class="cls-1" d="M0,124.74c1.12-1.62,2-3.37,3-5.07q4.5-7.65,9-15.33c.11-.19.23-.37.39-.62l3.46,5.92q4.27,7.31,8.56,14.62c.3.51.23.7-.28,1a26.89,26.89,0,0,1-8,2.59c-.41.07-.51.2-.51.61q.08,12.29.13,24.59.07,13.15.15,26.29c0,4.1.06,8.2.08,12.29a7.66,7.66,0,0,0,6.29,7.66,7.37,7.37,0,0,0,1.47.15H43.16A7,7,0,0,0,50.09,194a13.76,13.76,0,0,0,.43-3.51q-.11-12.18-.21-24.37-.14-14.89-.29-29.77-.12-12.14-.24-24.29c0-4.18,2.6-6.83,6.82-6.83H94a15.86,15.86,0,0,0,3.52-.39c4-.9,6.2-3.41,6.91-7.35a8.82,8.82,0,0,0,.16-1.54c0-5.41,0-10.81,0-16.22a7.41,7.41,0,0,0-3.94-7,11.81,11.81,0,0,0-5.71-1.31l-29,0c-1.11,0-2.22,0-3.33,0a3.06,3.06,0,0,1-3.15-3.13c0-2.17,0-4.34,0-6.52q0-19.15,0-38.29a1,1,0,0,0-.75-1.13A11.69,11.69,0,0,1,61.05.27c.24-.05.55,0,.72-.27H65a7.33,7.33,0,0,0,1.61.41,11.69,11.69,0,0,1,2.09,21.77.94.94,0,0,0-.63,1q0,16.15,0,32.29a8.33,8.33,0,0,0,1.25,4.72,7,7,0,0,0,4.87,2.92,10.32,10.32,0,0,0,1.91.15H110.1a4.88,4.88,0,0,1,5.2,3.83,4.19,4.19,0,0,1,.14,1.24q0,20.3,0,40.59c0,2.72-1.25,3.77-2.85,4.16a5.47,5.47,0,0,1-1.25.1l-28.59.2c-5,0-9.92,0-14.89.11a10.13,10.13,0,0,0-5.95,1.71c-2.32,1.67-3,4-2.91,6.74,0,.39.08.79.08,1.18q0,18.81,0,37.63a21.11,21.11,0,0,0,.18,4.86,9.53,9.53,0,0,0,8.18,7.86,53.84,53.84,0,0,0,12,.36,31.23,31.23,0,0,0,6.1-.6c4.48-1.08,7-4.3,7.23-8.92.17-3.08.21-6.17.31-9.25a2.64,2.64,0,0,1,2.66-2.46c.84-.07,1.68-.1,2.51-.11,7.4-.13,14.81-.25,22.21-.38q10.85-.2,21.69-.44l21.32-.45a15.16,15.16,0,0,0,2.35-.21c2.68-.48,4-2.14,4.44-4.75a13.76,13.76,0,0,0,.15-2.14q0-20,0-40a9,9,0,0,0-.57-3.33c-1-2.56-3.13-3.7-5.94-3.69s-5.33,0-8,0c-2.3,0-4.59,0-6.89,0-.57,0-.82.14-1,.71a22.22,22.22,0,0,1-2.23,5.54.8.8,0,0,1-.8.48q-7.48,0-15,0c-.48,0-.56-.16-.56-.59q0-9.78,0-19.55c0-.48.13-.62.61-.62q7.44,0,14.89,0a1,1,0,0,1,.9.49,15,15,0,0,1,2.49,5.72c.13.66.36.81,1,.81q13.07,0,26.15,0H176c2.18,0,3.09.93,3.09,3.13,0,4,0,8,0,12.07,0,17,0,33.92,0,50.89,0,3.15-1.57,4.1-4.13,4.1q-31.22,0-62.44,0a10.36,10.36,0,0,0-6.49,1.85,7.34,7.34,0,0,0-3.05,6.12c0,9.26.18,18.51.28,27.77,0,.66,0,1.32,0,2.1a11.59,11.59,0,0,0-10.49-.07c0-1.86,0-3.63,0-5.41a9.29,9.29,0,0,0-1.39-5.42,8.17,8.17,0,0,0-5.21-3.37,46.4,46.4,0,0,0-15-.82,31.72,31.72,0,0,0-6,.95c-4.47,1.31-6.8,5.09-6.44,9.71.18,2.31.09,4.64.11,7,0,1.26,0,2.52,0,3.78,0,1.76-.81,2.51-2.56,2.51l-30.88-.14c-4.42,0-8.84,0-13.26,0-2.18,0-3-.86-3-3q0-37.55,0-75.11c0-.39,0-.7-.52-.77a24.21,24.21,0,0,1-8.68-3Z"/><path class="cls-2" d="M9.78,278.87a26.94,26.94,0,0,1,2-11c2.67-6.14,7.49-9.43,14-10.46a22.42,22.42,0,0,1,3.53-.18c11.89,0,23.78.11,35.67,0,9.49-.12,17.83-3.36,24.48-10.28a3.49,3.49,0,0,1,4-1.19,23.06,23.06,0,0,0,12.7-.49,1.2,1.2,0,0,1,1.47.43A32.94,32.94,0,0,0,124.41,256a36.18,36.18,0,0,0,9,1.21c12.1,0,24.21,0,36.31,0a18.71,18.71,0,0,1,10.23,2.9c4.59,2.92,6.89,7.31,7.91,12.5a30.68,30.68,0,0,1,.56,6.22Z"/><path class="cls-3" d="M187.13,159.27c-.35,5.17-3.7,8.6-8.94,9.18a24.55,24.55,0,0,1-2.73.13H120.12a11.79,11.79,0,0,0-3.3.36,6.38,6.38,0,0,0-4.81,6.49q0,13.37,0,26.74,0,4,0,8c0,.68,0,1.36-.75,1.7a1.63,1.63,0,0,1-1.82-.42,18.51,18.51,0,0,0-7.74-3.87,14.75,14.75,0,0,0-12.24,2.72c-.56.4-1.08.86-1.62,1.29a1.39,1.39,0,0,1-2.42-.86,4.51,4.51,0,0,1-.07-.88c0-4.59,0-9.19,0-13.78a4.48,4.48,0,0,0-3-4.4,7.44,7.44,0,0,0-1.92-.52,45.08,45.08,0,0,0-9.82.12c-2.17.23-3.31,1.73-3.31,3.93q0,5.3,0,10.59a9.92,9.92,0,0,1-.66,3.62,7.38,7.38,0,0,1-6.31,4.81,47.1,47.1,0,0,1-7.62.1c-3-.06-6-.05-9-.08-4,0-8,0-12-.06-6.86-.14-13.73,0-20.59-.13A10,10,0,0,1,6,212.76a8.15,8.15,0,0,1-3.82-6,19,19,0,0,1-.12-3.17q0-34.74,0-69.48c0-.22,0-.45,0-.67.09-1.46,1-1.94,2.32-1.42a1.76,1.76,0,0,1,1.25,2q-.06,35,0,70c0,2.55.94,4.7,3.46,5.79a8.7,8.7,0,0,0,3.47.62c9.65,0,19.31,0,29,.07,4.86,0,9.73,0,14.59.09a7,7,0,0,0,3.36-.75,5.12,5.12,0,0,0,2.87-4.61c.1-3.75.06-7.51,0-11.26a8.49,8.49,0,0,1,.3-3.42,5.37,5.37,0,0,1,4.4-3.33,50.48,50.48,0,0,1,12.38-.67,32.91,32.91,0,0,1,5.92.79A4.73,4.73,0,0,1,89,190.35a7.15,7.15,0,0,1,.19,2.28q0,4.18,0,8.37a1.86,1.86,0,0,0,1,2,2,2,0,0,0,2.25-.41c3.34-2.9,7.27-2.78,10.73-.31l.59.44a1.9,1.9,0,0,0,2.15.22,1.73,1.73,0,0,0,.91-1.73c0-4,0-8.1,0-12.15,0-4.91-.07-9.82-.18-14.73,0-1.92,0-3.85-.11-5.77a4.46,4.46,0,0,1,3.95-4.52,12.26,12.26,0,0,1,2.06-.15H175a9.67,9.67,0,0,0,3.54-.66,6.11,6.11,0,0,0,4-5.28,15.73,15.73,0,0,0,.12-2.14q0-30.48,0-61a14.64,14.64,0,0,0-.17-3.32c-.78-3.39-3-4.9-6.35-4.93-7.55-.07-15.11,0-22.67,0a1.84,1.84,0,0,1-1.62-1.85c0-.93.53-1.43,1.58-1.43q12.26,0,24.52,0c5.24,0,8.28,2.6,9.17,7.76,0,.14,0,.3.15.39v2.67a1.75,1.75,0,0,0-.07.87q0,31.72,0,63.44A2.65,2.65,0,0,1,187.13,159.27Z"/><path class="cls-4" d="M187.13,161.53c0-.39,0-.79,0-1.18q0-31.47,0-62.94c0-.36-.12-.74.14-1.07v65.18Z"/><path class="cls-3" d="M127,144.43H157a21.93,21.93,0,0,0,2.66-.16c2.51-.3,3.77-1.7,3.85-4.32.05-1.75,0-3.51,0-5.26q0-13,0-26a6.5,6.5,0,0,0-.39-2.69,3.34,3.34,0,0,0-3.22-2.18c-2.07,0-4.15,0-6.22,0A1.73,1.73,0,0,1,152,103c-.41-.81.12-1.47.48-2.13.16-.31.48-.19.74-.19h7.18c1.11,0,2.22,0,3.33-.07a2.63,2.63,0,0,1,3.11,2.88c0,.39,0,.79,0,1.19q0,19.67,0,39.33a9,9,0,0,1-.15,2.14,1.65,1.65,0,0,1-1.6,1.39c-.71.06-1.43.1-2.14.12l-12.22.21-14.14.29-14.58.3c-5,.1-10.07.14-15.1.32-3.58.13-7.16,0-10.73.23a8.34,8.34,0,0,0-4,1.17A5.66,5.66,0,0,0,89.49,155c-.11,3.13-.28,6.26-.34,9.39s-2.45,5.4-5.74,5.64a115.93,115.93,0,0,1-12,.29,16.13,16.13,0,0,1-4.31-.55,6.27,6.27,0,0,1-4.58-6.28c.22-8.29.07-16.59.12-24.88,0-5.26,0-10.52,0-15.78a5.81,5.81,0,0,0-.07-.88,4,4,0,0,1,3.71-4.81,69.27,69.27,0,0,1,7.47-.15c9.65-.08,19.3-.09,29-.2l8.51-.08c4.77,0,7.73-2.95,7.74-7.71q0-12.93,0-25.85,0-7.3,0-14.59a8.52,8.52,0,0,0-8.85-8.89q-17,0-34,0a6.7,6.7,0,0,1-1.62-.11,3.33,3.33,0,0,1-2.81-3.48c0-3.85,0-7.7,0-11.55q0-9.44,0-18.89a2.21,2.21,0,0,1,2.51-1.93,1.13,1.13,0,0,1,.89,1,6.83,6.83,0,0,1,0,1q0,11.33,0,22.67a10.93,10.93,0,0,0,.38,3.14,6.69,6.69,0,0,0,6.82,5c6,0,12,0,18,0,3.51,0,7,0,10.52,0a12.81,12.81,0,0,1,6.69,1.85,11.5,11.5,0,0,1,5,6.83,16.52,16.52,0,0,1,.62,4.67q0,19.59,0,39.18a13.45,13.45,0,0,1-1.1,5.69,9.79,9.79,0,0,1-7.44,5.6,16.74,16.74,0,0,1-3.23.3c-4.39,0-8.79.06-13.18.2-3.68.11-7.36,0-11,.14-3.38.11-6.76,0-10.14.11a10,10,0,0,0-6.4,2.12,8.69,8.69,0,0,0-2.91,5.26,24.8,24.8,0,0,0-.13,4.8q0,13,0,25.92a9.85,9.85,0,0,0,.53,3.49,5.39,5.39,0,0,0,5,3.7,66.76,66.76,0,0,0,7.55-.1,5.61,5.61,0,0,0,5.13-5.52,62.88,62.88,0,0,1,.08-7.32,9.12,9.12,0,0,1,7.75-8.65,17.72,17.72,0,0,1,3.6-.31Z"/><path class="cls-5" d="M98.41,212.34A14.44,14.44,0,1,1,84,226.76,14.45,14.45,0,0,1,98.41,212.34Z"/><path class="cls-3" d="M43.13,148.52q0-19.67,0-39.33a11.76,11.76,0,0,1,1.44-6.12c1.65-2.79,4.28-4,7.35-4.55a18,18,0,0,1,3-.15H91a8.06,8.06,0,0,0,2.13-.23,3.81,3.81,0,0,0,2.94-4c-.13-3.33,0-6.66-.07-10a9.57,9.57,0,0,0-.08-1.55,4,4,0,0,0-4.13-3.47c-7.33,0-14.67,0-22,0-2.64,0-5.29.07-7.93,0A10.79,10.79,0,0,1,55,76.74a9.66,9.66,0,0,1-3.15-5.63,13.94,13.94,0,0,1-.31-3c0-3.33,0-6.67,0-10,.16-10.84.06-21.68.12-32.51,0-.74.07-1.49.85-1.82a1.66,1.66,0,0,1,2,.65.47.47,0,0,0,.11.1c1.19.66,1.26,1.72,1.26,2.94q-.07,20.15,0,40.3c0,2.84,1,5.22,3.79,6.51a8,8,0,0,0,3.45.71l31.63,0a9,9,0,0,1,3.69.6A3.9,3.9,0,0,1,101,79.32q0,8.44,0,16.89a5.3,5.3,0,0,1-4.74,5.29,17,17,0,0,1-2.29.13c-12.37,0-24.74,0-37.11,0A11.41,11.41,0,0,0,49,104.59a8.76,8.76,0,0,0-2.79,6.78c0,6.94.1,13.87.16,20.81.05,5.83.06,11.65.18,17.48.11,5,0,10,.14,15,.13,5.18,0,10.37.15,15.55.09,3.7.08,7.4.08,11.11A4.66,4.66,0,0,1,45.58,195a3.07,3.07,0,0,1-2.13.88q-10.07,0-20.15,0A4.12,4.12,0,0,1,19.56,192c0-3.68,0-7.36,0-11-.16-8.76,0-17.53-.15-26.29-.11-7.21-.06-14.42-.11-21.62,0-.3-.17-.7.14-.9a4.21,4.21,0,0,1,2-1.05c.87,0,1.29.59,1.29,1.86q0,23.3,0,46.59c0,2.47,0,4.94,0,7.41a8.09,8.09,0,0,0,.51,3,4.24,4.24,0,0,0,4.05,2.83c3.68.08,7.36,0,11,0,2.59,0,4.13-1.23,4.73-3.46a5.56,5.56,0,0,0,.12-1.47q0-19.7,0-39.41Z"/><path class="cls-6" d="M108.89,226.72a10.52,10.52,0,1,1-10.47-10.53A10.52,10.52,0,0,1,108.89,226.72Z"/><path class="cls-7" d="M98.39,234.56a7.7,7.7,0,1,1,7.68-7.67A7.7,7.7,0,0,1,98.39,234.56Z"/><text class="cls-8" transform="translate(8.63 302.82)">Consultt<tspan class="cls-9" x="132.98" y="0">r</tspan><tspan class="cls-10" x="146.17" y="0">ee</tspan></text></g></g></svg>