<svg xmlns="http://www.w3.org/2000/svg" xmlns:xlink="http://www.w3.org/1999/xlink" viewBox="0 0 58.7 137.87"><defs><style>.cls-1,.cls-3,.cls-5,.cls-8{fill:#fff;}.cls-1{filter:url(#luminosity-invert-noclip);}.cls-2,.cls-3{isolation:isolate;}.cls-3{font-size:21.58px;font-family:Raleway-Light, Raleway;letter-spacing:-0.01em;}.cls-4{letter-spacing:0em;}.cls-6{fill:none;stroke:#fff;stroke-miterlimit:10;stroke-width:1.5px;}.cls-7{mask:url(#mask);}.cls-8{font-size:8.12px;font-family:Raleway-Medium, Raleway;}</style><filter id="luminosity-invert-noclip" x="6.77" y="4.83" width="48.29" height="45.77" filterUnits="userSpaceOnUse" color-interpolation-filters="sRGB"><feColorMatrix values="-1 0 0 0 1 0 -1 0 0 1 0 0 -1 0 1 0 0 0 1 0" result="invert"/><feFlood flood-color="#fff" result="bg"/><feBlend in="invert" in2="bg"/></filter><mask id="mask" x="6.77" y="4.83" width="48.29" height="45.77" maskUnits="userSpaceOnUse"><path class="cls-1" d="M31.94,27v11.4a2,2,0,0,0,2.21,2.28h1.57s1.76-.09,1.76,1.58,0,2.65,0,2.65a1.66,1.66,0,0,1-1.89,1.7h-5s-2.32.41-2.32-2.65V27h3.71"/></mask></defs><title>home-brand</title><g id="Layer_2" data-name="Layer 2"><g id="Layer_1-2" data-name="Layer 1"><g id="Subscribe_to_our_newsletter" data-name="Subscribe to our newsletter" class="cls-2"><text class="cls-3" transform="translate(0 133.06) scale(0.97 1)">H<tspan class="cls-4" x="15.71" y="0">ome</tspan></text></g><path class="cls-5" d="M17.72,27.6v0h.92s0,0,0,0h-.93Z"/><path class="cls-5" d="M18.64,27.6v0h.92s0,0,0,0h-.93Z"/><path class="cls-5" d="M55.08,31s0-.11,0-.16h0Z"/><path class="cls-5" d="M55.08,30.81h0v-.13h0Z"/><path class="cls-5" d="M55.08,58.31c0-.07,0-.14,0-.21h0Z"/><path class="cls-5" d="M55.08,58.1h0v-.16h0Z"/><path class="cls-5" d="M20.52,27.6c0,1,0,2,0,3a4.36,4.36,0,0,1-.69,2.36,4.14,4.14,0,0,1-2.29,1.65,7.08,7.08,0,0,1-2.49.31c-.11,0-.13,0-.13.13q0,4.62,0,9.24,0,1.62,0,3.24,0,8.69,0,17.37a4.36,4.36,0,0,0,.27,1.63,3.2,3.2,0,0,0,2,1.87,5,5,0,0,0,1.69.29H44.27a2.65,2.65,0,0,0,1.37-.32,1.75,1.75,0,0,0,.8-1,.68.68,0,0,0,0-.22c0-.72,0-1.43,0-2.15a2.39,2.39,0,0,0-.24-1.08A1.57,1.57,0,0,0,44.76,63c-2.32,0-4.65,0-7,0H37.6l.31-.41a7.31,7.31,0,0,0,1.33-2.68,5.09,5.09,0,0,0-.8-4.18,6,6,0,0,0-1.08-1.21s.08,0,.11,0H52.61a2.09,2.09,0,0,1,1.92,1.16,4.76,4.76,0,0,1,.52,1.7c0,.18,0,.36.06.55a.56.56,0,0,1,0,.15.72.72,0,0,0,0,.21v.58a1,1,0,0,0,0,.26q0,6.76,0,13.51a5.11,5.11,0,0,1-.21,1.68,3.67,3.67,0,0,1-2.12,2.36,4.53,4.53,0,0,1-1.2.35,2.59,2.59,0,0,1-.39,0c-.06,0-.12,0-.18,0h-.26a.36.36,0,0,0-.17,0H10.68a4.05,4.05,0,0,1-2.89-1.2,4.15,4.15,0,0,1-1.07-2.1,6.06,6.06,0,0,1-.1-1.58s0-.1,0-.14q0-20.83,0-41.65c0-.42,0-.85,0-1.27q0-.21,0-.42t0-.49a2.76,2.76,0,0,0,0-.43v-.13a.16.16,0,0,1,.12,0c.17,0,.35,0,.52,0H9.05c2.9,0,5.81,0,8.71,0h2.63S20.48,27.57,20.52,27.6Z"/><path class="cls-5" d="M55.08,48.92c0,.13-.07.27-.1.4a1.89,1.89,0,0,1-1.9,1.46H48.2a2,2,0,0,1-1.85-1.33,3.56,3.56,0,0,1-.23-1.29q0-2.37,0-4.75,0-4.18,0-8.36c0-.13,0-.15-.16-.15a4.51,4.51,0,0,1-4-2.23,7.13,7.13,0,0,1-.94-2.54,13.21,13.21,0,0,1-.21-2.34c0-.1,0-.13.13-.13,3.71,0,7.41,0,11.12,0A2.92,2.92,0,0,1,55,30a4.11,4.11,0,0,1,.11.68.45.45,0,0,1,0,.13c0,.05,0,.11,0,.16Z"/><path class="cls-5" d="M27.5,54.46a6.41,6.41,0,0,0-1.72,4.32,7,7,0,0,0,1.65,4.32.23.23,0,0,1-.13,0H21.1a1.31,1.31,0,0,1-1.36-1.36c0-2,0-4,0-5.94a1.25,1.25,0,0,1,1.15-1.32,2.07,2.07,0,0,1,.38,0H27.5Z"/><path class="cls-5" d="M32.22,56.63A2.23,2.23,0,1,1,30,58.84,2.23,2.23,0,0,1,32.22,56.63Z"/><circle class="cls-6" cx="32.23" cy="58.84" r="3.77"/><g class="cls-7"><path class="cls-5" d="M55,21.61a1.86,1.86,0,0,1-1.82,1.91H37.83a1.85,1.85,0,0,0-1.31.45,1.92,1.92,0,0,0-.67,1.43q0,4.74,0,9.49a2.47,2.47,0,0,0,.42,1.49,2.21,2.21,0,0,0,1.52.87,9.78,9.78,0,0,0,1.42,0,2.36,2.36,0,0,1,1.47.44,2.39,2.39,0,0,1,.83,1.35,3.29,3.29,0,0,1,.11.84c0,2.44,0,4.87,0,7.31a3.74,3.74,0,0,1-.48,1.87,2.92,2.92,0,0,1-2,1.42,3.47,3.47,0,0,1-.73.08c-2.8,0-5.6,0-8.4,0-1.17,0-2.33,0-3.5,0a2.61,2.61,0,0,1-1.88-.75A2,2,0,0,1,24,48.56c-.07-.84,0-1.68,0-2.51,0-2.18,0-4.37,0-6.55,0-4.77,0-9.53,0-14.3A1.51,1.51,0,0,0,23,23.73a2,2,0,0,0-.94-.21H8.7a1.85,1.85,0,0,1-1.15-.33A2,2,0,0,1,6.85,22c0-.12,0-.24-.06-.36s0-.09,0-.13v-.24a.35.35,0,0,0,0-.17q0-7.9,0-15.79a.27.27,0,0,1,0-.17c.06,0,.1,0,.14.05a2.21,2.21,0,0,0,1.38.54,2.81,2.81,0,0,0,1-.18,4,4,0,0,0,.83-.4c.16-.1.19-.08.19.11q0,1.35,0,2.7a2.22,2.22,0,0,0,.08.6.73.73,0,0,0,.78.59h5.07a.58.58,0,0,0,.6-.64c0-.31,0-.63,0-.94a.63.63,0,0,1,0-.14c0-.08.06-.09.13,0a1.3,1.3,0,0,1,.16.14A2.31,2.31,0,0,0,19,8.16a2.86,2.86,0,0,0,1.56-.65c.06,0,.13-.15.21-.1s0,.14,0,.22q0,3.32,0,6.64c0,.08,0,.19-.05.23s-.15-.05-.21-.1a2.75,2.75,0,0,0-1-.49,2.52,2.52,0,0,0-1.77.26,3.49,3.49,0,0,0-.52.34s-.09.1-.14.06,0-.1,0-.16c0-.35,0-.69,0-1a1.13,1.13,0,0,0-.11-.5.64.64,0,0,0-.57-.39h-5a1,1,0,0,0-1,1.08c0,.34,0,.67,0,1q0,1.75,0,3.5a2.49,2.49,0,0,0,.09.65,1.56,1.56,0,0,0,1.47,1.13H26.84a1.71,1.71,0,0,1,.63.1A1.2,1.2,0,0,1,28.21,21a3.45,3.45,0,0,1,0,.51c0,.52,0,1,0,1.56,0,.16,0,.17.16.17h3.9a1.17,1.17,0,0,0,1.07-.55,1.08,1.08,0,0,0,.14-.59c0-.76,0-1.52,0-2.28,0-1.07,0-2.14,0-3.21a1.49,1.49,0,0,0-.17-.72,1.23,1.23,0,0,0-1.13-.66H30.4a1.21,1.21,0,0,1-1.22-.82,2.13,2.13,0,0,1-.15-.74c0-.32,0-.64,0-1,0-1.07,0-2.15,0-3.22,0-1.46,0-2.93,0-4.39a.39.39,0,0,1,0,0c0-.05,0-.12.05-.15s.1,0,.15.07a2.52,2.52,0,0,0,1,.54,2.12,2.12,0,0,0,1.41-.15,3.21,3.21,0,0,0,.76-.47.41.41,0,0,1,.15-.1c.06,0,.06.06.06.1a1.29,1.29,0,0,1,0,.17q0,2.63,0,5.27a1.75,1.75,0,0,0,.15.78,1,1,0,0,0,1,.62h2a2.62,2.62,0,0,1,.46,0,1.26,1.26,0,0,1,1.09,1.28c0,1.13,0,2.25,0,3.38q0,.77,0,1.53a1.5,1.5,0,0,0,1.11,1.58,2.94,2.94,0,0,0,1,.18H50a1.41,1.41,0,0,0,.25,0,.81.81,0,0,0,.69-.87c0-.24,0-.47,0-.71q0-1.2,0-2.4a1.62,1.62,0,0,0,0-.24.83.83,0,0,0-.82-.73h-.49c-1.35,0-2.69,0-4,0a3.35,3.35,0,0,1-1.9-.53,2,2,0,0,1-.88-1.43,3.53,3.53,0,0,1,0-.51c0-.9,0-1.79,0-2.69,0-.24,0-.48,0-.72,0,0,0-.08,0-.12s.06-.14.15-.07.16.16.25.23a2.18,2.18,0,0,0,2,.42,3.25,3.25,0,0,0,1.12-.54c.06,0,.11-.11.18-.07s0,.13,0,.2c0,.38,0,.77,0,1.15a1.12,1.12,0,0,0,1.16,1h5.07a2.5,2.5,0,0,1,1.27.3A2.09,2.09,0,0,1,55,13.3c0,.06,0,.12,0,.18v.39A.31.31,0,0,0,55,14q0,3.71,0,7.43A.49.49,0,0,1,55,21.61Z"/></g><path class="cls-5" d="M55,20.87c0-.1,0-.2,0-.3q0-3.63,0-7.26c0-.06,0-.12,0-.18v7.73Z"/><path class="cls-5" d="M32,62.7c.07,0,.15,0,.21,0H32A.08.08,0,0,0,32,62.7Z"/><path class="cls-5" d="M32.65,62.72c.07,0,.14,0,.21,0a.08.08,0,0,0,0,0Z"/><path class="cls-5" d="M55,12.58h0v.16S55,12.63,55,12.58Z"/><path class="cls-5" d="M6.77,20.76s0,.09,0,.13h0Z"/><circle class="cls-5" cx="18.9" cy="16.81" r="2.15"/><circle class="cls-5" cx="44.54" cy="6.01" r="2.15"/><circle class="cls-5" cx="30.71" cy="2.15" r="2.15"/><circle class="cls-5" cx="18.85" cy="4.75" r="2.15"/><circle class="cls-5" cx="8.48" cy="2.26" r="2.15"/><text class="cls-8" transform="translate(6.29 86.78)">GARDENERS</text></g></g></svg>