<svg xmlns="http://www.w3.org/2000/svg" viewBox="0 0 192.67 254.38"><defs><style>.cls-1{fill:#138a8b;}.cls-2{fill:#148a8b;}.cls-3,.cls-9{fill:#959494;}.cls-4{fill:#308f90;}.cls-5{fill:#5b9c9e;}.cls-6{fill:#6ba3a6;}.cls-7{fill:#fff;}.cls-8{fill:#128a8c;}.cls-9{font-size:23.71px;font-family:Raleway-Medium, Raleway;letter-spacing:0.2em;}.cls-10{letter-spacing:0.19em;}.cls-11{letter-spacing:0.2em;}</style></defs><title>promobloom</title><g id="Layer_2" data-name="Layer 2"><g id="Layer_1-2" data-name="Layer 1"><path class="cls-1" d="M174.82,97.36a26.18,26.18,0,0,0-.67,3.6,22.94,22.94,0,0,1-4.49,10,15.58,15.58,0,0,1-10.78,5.68c-4.33.45-8.68.15-13,.2-7,.09-14,.21-21,.13-1.75,0-3.5-.15-5.24-.14a4.94,4.94,0,0,0-5.21,3.84,19.25,19.25,0,0,0-.86,5.92q-.06,19.42-.06,38.85,0,7.74,0,15.49c0,.4.08.74-.56.76A17.56,17.56,0,0,1,97,172a21.79,21.79,0,0,1-1.79-9.14q0-25.48,0-51a26,26,0,0,1,.14-3.72,15.48,15.48,0,0,1,1.31-4.61,9.57,9.57,0,0,1,8.75-5.66c2.9-.13,5.81,0,8.72,0h31.91c4.67,0,8.4-2.92,9.95-7.83A23.39,23.39,0,0,0,157,83q0-23.78,0-47.57a23.25,23.25,0,0,1,1.75-9.24c2.46-5.78,7-8.82,13.1-9.55a13.23,13.23,0,0,1,2.78-.14,2.05,2.05,0,0,1,.08,1q0,37.76,0,75.52a2,2,0,0,0,.08,1v1.35a1.29,1.29,0,0,0,0,1Z"/><path class="cls-2" d="M11.32,16.58a15.34,15.34,0,0,1,14.5,11A24.93,24.93,0,0,1,27,35.45q0,23.83,0,47.65a19.53,19.53,0,0,0,1.82,8.95,9.91,9.91,0,0,0,9.53,5.81q19.81,0,39.61,0c5.56,0,9.32,3.33,10.46,9a18.08,18.08,0,0,1,.36,3.53q0,26.11,0,52.22A21.12,21.12,0,0,1,86.52,173c-2.48,4.58-6.51,7-11.45,8.2a29,29,0,0,1-3.59.52c-.76.08-.93-.16-.93-.91q0-17.39,0-34.79c0-6.49,0-13-.05-19.47a19.33,19.33,0,0,0-.83-5.75c-.86-2.71-2.46-4-5.31-3.91-6.32.18-12.64.14-19,.1-6,0-12,0-18-.13-4.88-.08-9.19-1.63-12.54-5.34A22.29,22.29,0,0,1,9.91,101a25.72,25.72,0,0,0-.67-3.6v-.85a1.29,1.29,0,0,0,0-1V94a2,2,0,0,0,.08-1q0-37.6,0-75.2c0-1.26,0-1.26,1.25-1.25A1.85,1.85,0,0,1,11.32,16.58Z"/><path class="cls-3" d="M.86,222.84a21.53,21.53,0,0,1,2.85-11.6c2.76-4.5,7-6.83,12-7.87a25.6,25.6,0,0,1,5.25-.43c12.12,0,24.24.09,36.35,0,8.71-.08,16.75-2.43,23.64-8a35.87,35.87,0,0,0,11.25-15.83l.31-.83c.4,1,.7,1.9,1.09,2.75,5.45,12,14.63,19.16,27.65,21.34a47.06,47.06,0,0,0,7.83.6c12.08,0,24.17,0,36.25,0a19.54,19.54,0,0,1,12.49,4.24,17,17,0,0,1,5.95,10.59,24.23,24.23,0,0,1,.43,5Z"/><path class="cls-4" d="M11.32,16.58c-1.92.08-1.92.08-1.92,2q0,37.18,0,74.36c0,.35.14.74-.16,1V16.43A7.08,7.08,0,0,1,11.32,16.58Z"/><path class="cls-4" d="M174.82,94c-.31-.31-.16-.7-.16-1q0-38.23,0-76.47l.17,0Z"/><path class="cls-5" d="M174.82,96.35a.76.76,0,0,1,0-1Z"/><path class="cls-6" d="M9.23,95.5a.76.76,0,0,1,0,1Z"/><path class="cls-3" d="M22.09,13.47a21.11,21.11,0,0,1,4.29-.85,26.42,26.42,0,0,1,11.45.83c6.17,2,9.72,6.36,11.34,12.48a32.68,32.68,0,0,1,1,8.28c0,8.63,0,17.27,0,25.9a21,21,0,0,0,.33,5.53,7.52,7.52,0,0,0,7.65,6.13c4.14.13,8.29.23,12.43.39a35.61,35.61,0,0,1,7.38.59C84.5,74.4,88.23,79,89.31,85.46a36.1,36.1,0,0,1-.42,12.18A11.45,11.45,0,0,0,87.06,93a11.94,11.94,0,0,0-8-4.58,25.78,25.78,0,0,0-4.63-.35q-15.62,0-31.23,0a9.22,9.22,0,0,1-9.4-9.21q-.05-22.77,0-45.53a29.88,29.88,0,0,0-1.75-11.52A12.64,12.64,0,0,0,22.09,13.47Z"/><path class="cls-3" d="M161.85,13.48c-6.43,1.25-9.48,5.64-10.9,11.54a32.75,32.75,0,0,0-.73,8c.06,6.15.06,12.3.06,18.45q0,13.41,0,26.83a9,9,0,0,1-3.15,7.35,9.52,9.52,0,0,1-6.19,2.36c-10.69,0-21.38,0-32.08,0a17.29,17.29,0,0,0-8.11,1.72,9.77,9.77,0,0,0-5.38,7,3,3,0,0,1-.12.41,1.6,1.6,0,0,1-.13.23,39.74,39.74,0,0,1-.72-8.69A19.33,19.33,0,0,1,97,79.19c2.42-4,6.11-5.93,10.56-6.73a42.11,42.11,0,0,1,5.72-.28c4.17-.18,8.34-.29,12.51-.4a7.87,7.87,0,0,0,8.09-7.57,40.21,40.21,0,0,0,0-4c0-8.83-.06-17.66,0-26.49A26.83,26.83,0,0,1,136.33,22c2.63-5.39,7.1-8.23,12.86-9.23a30.53,30.53,0,0,1,11.91.48l.49.13A1.91,1.91,0,0,1,161.85,13.48Z"/><path class="cls-3" d="M91.12,0a30.58,30.58,0,0,0,6.95,8.46,108.32,108.32,0,0,0,9.67,7.66A26.57,26.57,0,0,1,118.85,34c1,6.4.72,12.8-2.09,18.79A25.75,25.75,0,0,1,97.4,67.9a25.93,25.93,0,0,1-21.91-5.41,25.07,25.07,0,0,1-9.71-17.82,35.86,35.86,0,0,1,2.18-17,25.33,25.33,0,0,1,9.1-11.51A43,43,0,0,0,90.93.25,2,2,0,0,1,91.12,0Z"/><path class="cls-7" d="M75.26,42.1c-.31-9,7.54-16.88,17-16.86a16.84,16.84,0,1,1,0,33.67C82.45,58.87,75,50.81,75.26,42.1Z"/><ellipse class="cls-8" cx="92.11" cy="41.83" rx="12.44" ry="12.19"/><text class="cls-9" transform="translate(0 249.05)">p<tspan class="cls-10" x="19.51" y="0">r</tspan><tspan class="cls-11" x="32.57" y="0">omobloom</tspan></text></g></g></svg>