<svg xmlns="http://www.w3.org/2000/svg" xmlns:xlink="http://www.w3.org/1999/xlink" viewBox="0 0 214.67 213.73"><defs><style>.cls-1,.cls-2,.cls-3{fill:#fff;}.cls-1{filter:url(#luminosity-invert-noclip);}.cls-2{filter:url(#luminosity-invert-noclip-2);}.cls-3{filter:url(#luminosity-invert-noclip-3);}.cls-4{font-size:24.08px;font-family:Raleway-Medium, Raleway;letter-spacing:0.12em;}.cls-18,.cls-4{fill:#959494;}.cls-5{letter-spacing:0.2em;}.cls-6{letter-spacing:0.2em;}.cls-7{letter-spacing:0.19em;}.cls-8{fill:#949494;}.cls-9{mask:url(#mask);}.cls-10{fill:#0f8a8b;}.cls-11{fill:#138a8b;}.cls-12{fill:#6ea5a7;}.cls-13{fill:#a4c1c4;}.cls-14{fill:#67a2a3;}.cls-15{fill:#66a0a3;}.cls-16{fill:#a7c4c6;}.cls-17{mask:url(#mask-2);}.cls-19{fill:#7babad;}.cls-20{mask:url(#mask-3);}</style><filter id="luminosity-invert-noclip" x="0" y="88.31" width="88.74" height="64.69" filterUnits="userSpaceOnUse" color-interpolation-filters="sRGB"><feColorMatrix values="-1 0 0 0 1 0 -1 0 0 1 0 0 -1 0 1 0 0 0 1 0" result="invert"/><feFlood flood-color="#fff" result="bg"/><feBlend in="invert" in2="bg"/></filter><mask id="mask" x="0" y="88.31" width="88.74" height="64.69" maskUnits="userSpaceOnUse"><path class="cls-1" d="M19.62,119.12c-.1-.19,0-.33.1-.48a32.59,32.59,0,0,1,12.1-14.83,43.39,43.39,0,0,1,15.43-6.88,62.7,62.7,0,0,1,7.74-1l4.08-.39c.24,0,.52-.07.35.36a10.27,10.27,0,0,0-.3,5.27,24.24,24.24,0,0,0,.91,4.33c.09.28.1.4-.27.35a27.57,27.57,0,0,0-6.69,0,83.56,83.56,0,0,0-10.9,1.5,46.65,46.65,0,0,0-13.64,5.52,56.89,56.89,0,0,0-8.58,6.13C19.85,119,19.78,119.13,19.62,119.12Z"/></mask><filter id="luminosity-invert-noclip-2" x="82.85" y="71.35" width="47.83" height="48.1" filterUnits="userSpaceOnUse" color-interpolation-filters="sRGB"><feColorMatrix values="-1 0 0 0 1 0 -1 0 0 1 0 0 -1 0 1 0 0 0 1 0" result="invert"/><feFlood flood-color="#fff" result="bg"/><feBlend in="invert" in2="bg"/></filter><mask id="mask-2" x="82.85" y="71.35" width="47.83" height="48.1" maskUnits="userSpaceOnUse"><path class="cls-2" d="M105.9,76.29c4.29,0,7.51.51,10.49,2.06A7.2,7.2,0,0,1,119,80.41a3.2,3.2,0,0,1-.18,4.38,10.72,10.72,0,0,1-5.25,3,22.89,22.89,0,0,1-8.31.88,18.4,18.4,0,0,1-8.78-2.55A7.11,7.11,0,0,1,95,84.89a3.42,3.42,0,0,1,0-4.82,10.22,10.22,0,0,1,4.61-2.71A21.24,21.24,0,0,1,105.9,76.29Z"/></mask><filter id="luminosity-invert-noclip-3" x="125.19" y="88.31" width="88.74" height="64.69" filterUnits="userSpaceOnUse" color-interpolation-filters="sRGB"><feColorMatrix values="-1 0 0 0 1 0 -1 0 0 1 0 0 -1 0 1 0 0 0 1 0" result="invert"/><feFlood flood-color="#fff" result="bg"/><feBlend in="invert" in2="bg"/></filter><mask id="mask-3" x="125.19" y="88.31" width="88.74" height="64.69" maskUnits="userSpaceOnUse"><path class="cls-3" d="M194.31,119.12c.1-.19,0-.33-.1-.48a32.59,32.59,0,0,0-12.1-14.83,43.39,43.39,0,0,0-15.43-6.88,62.7,62.7,0,0,0-7.74-1l-4.08-.39c-.24,0-.52-.07-.35.36a10.27,10.27,0,0,1,.3,5.27,24.24,24.24,0,0,1-.91,4.33c-.09.28-.1.4.27.35a27.57,27.57,0,0,1,6.69,0,83.56,83.56,0,0,1,10.9,1.5,46.65,46.65,0,0,1,13.64,5.52,56.89,56.89,0,0,1,8.58,6.13C194.08,119,194.16,119.13,194.31,119.12Z"/></mask></defs><title>trainfountain</title><g id="Layer_2" data-name="Layer 2"><g id="Layer_1-2" data-name="Layer 1"><text class="cls-4" transform="translate(4.97 208.31)">T<tspan class="cls-5" x="17.65" y="0">rai</tspan><tspan class="cls-6" x="59.73" y="0">n</tspan><tspan class="cls-7" x="78.64" y="0">f</tspan><tspan class="cls-5" x="91.43" y="0">ou</tspan><tspan class="cls-6" x="129.96" y="0">n</tspan><tspan class="cls-5" x="148.87" y="0">tain</tspan></text><path class="cls-8" d="M4.23,181.87A28.33,28.33,0,0,1,6.13,171c2.56-6.21,7.27-9.89,13.68-11.55a23.49,23.49,0,0,1,6-.72q20.08,0,40.17,0a47,47,0,0,0,17.34-3,41.39,41.39,0,0,0,23.49-25.13c.05-.16,0-.39.33-.51a41.22,41.22,0,0,0,2.06,5.16c5.82,11.8,15,19.44,27.91,22.36a51.8,51.8,0,0,0,11.37,1.11c13.33,0,26.67,0,40,0a21.64,21.64,0,0,1,14.06,4.79A19.22,19.22,0,0,1,209,174.28a31,31,0,0,1,.84,7.59Z"/><g class="cls-9"><path class="cls-10" d="M0,152.48a15.47,15.47,0,0,0,.52-2.85C2.88,136.4,7.27,124,15,112.86A56.2,56.2,0,0,1,35.79,94.39a55.5,55.5,0,0,1,17.64-5.45,73.24,73.24,0,0,1,16.13-.35c.77.06.75.06.58.83-1.95,8.81-1.21,17.28,3.46,25.16,3.32,5.59,8.19,9.5,13.89,12.45l.12.05c1.3.66,1.32.67.86,2a16.59,16.59,0,0,1-8.41,9.52,27.7,27.7,0,0,1-10.45,3c-5.62.56-11.25.26-16.88.23-6.56,0-13.12-.23-19.69-.38-2.06,0-4.12-.26-6.19-.22A40.71,40.71,0,0,0,9.74,145a23.58,23.58,0,0,0-9.49,8c-.34,0-.08-.31-.25-.38Z"/></g><path class="cls-11" d="M107.75.11C114.91,1,119.57,5,122.23,11.54A15.51,15.51,0,0,1,123.52,17a17.25,17.25,0,0,1-4.13,11.39,32.48,32.48,0,0,1-2.88,3.1A37.33,37.33,0,0,0,106.91,46a27.15,27.15,0,0,0-1.33,5.83,29.63,29.63,0,0,0-1.42-6.07A37.53,37.53,0,0,0,94.61,31.4a27.75,27.75,0,0,1-4.16-4.92,15.62,15.62,0,0,1-2.73-10.25A19,19,0,0,1,92.14,6,16.25,16.25,0,0,1,103.43.11a1.83,1.83,0,0,1,.62,0c.23,0,.48.07.7-.07h1.7c.22.14.47,0,.7.07A1.77,1.77,0,0,1,107.75.11Z"/><path class="cls-12" d="M0,152.61c.2.05.08.31.25.38,0,.13-.09.25-.25.27Z"/><path class="cls-13" d="M104.07.11h-.64a.39.39,0,0,0,0-.11h.65s.06.06,0,.08Z"/><path class="cls-14" d="M104.07.11s0-.07,0-.11h.65C104.55.21,104.3.12,104.07.11Z"/><path class="cls-15" d="M107.11.11c-.23,0-.47.1-.67-.11h.65s.05,0,0,.07S107.12.11,107.11.11Z"/><path class="cls-16" d="M107.11.11a.75.75,0,0,1,0-.11h.65a.31.31,0,0,0,0,.11Z"/><path class="cls-11" d="M103.33,71.08c-.78-7.9-3.26-15.14-8.43-21.28-4-4.72-8.86-8.08-15-9.23a23.59,23.59,0,0,0-19.08,4.49A30.73,30.73,0,0,0,49.43,61.39a21.31,21.31,0,0,1-5.17,9.22,14.67,14.67,0,0,1-12.08,4.2,23.63,23.63,0,0,1-3.15-.5c-3.9-.83-6.23-3.37-7.49-7-1.52-4.39-.82-8.65,1.05-12.78a36.36,36.36,0,0,1,4.79-7.19,79.3,79.3,0,0,1,11-11.88A41,41,0,0,1,57.17,26a39.77,39.77,0,0,1,13.61-.27A40.83,40.83,0,0,1,82,28.88,32.87,32.87,0,0,1,97.85,44.62a52.09,52.09,0,0,1,4.8,15.61,60,60,0,0,1,.76,10.84Z"/><path class="cls-11" d="M107.51,71.36a55.73,55.73,0,0,1,.52-9.23,55.41,55.41,0,0,1,3.78-14.51,35,35,0,0,1,12.53-15.89,35.48,35.48,0,0,1,13.4-5.31,39.38,39.38,0,0,1,22.78,1.88A44.55,44.55,0,0,1,174,37.06a84.61,84.61,0,0,1,13,15.28,18.13,18.13,0,0,1,3.21,11.08,12.23,12.23,0,0,1-4.41,9.43,10.51,10.51,0,0,1-5,1.95c-4.24.76-8.27.33-11.93-2.12a17.13,17.13,0,0,1-5.79-7,36.76,36.76,0,0,1-1.84-4.86,30,30,0,0,0-14-17.35,23.74,23.74,0,0,0-26.66,2.19,33.24,33.24,0,0,0-11.14,16.48,41.9,41.9,0,0,0-1.87,9.23Z"/><g class="cls-17"><path class="cls-18" d="M107.51,71.36h.07c.06.36.35.25.57.27a23.52,23.52,0,0,1,9.71,2.71c7.11,3.9,11.45,9.84,12.57,17.89a23.09,23.09,0,0,1-7.51,21,22.63,22.63,0,0,1-14,6.18,23.32,23.32,0,0,1-19.74-7.65,22.7,22.7,0,0,1-6.19-14A23.35,23.35,0,0,1,90.48,78a23,23,0,0,1,12.83-6.15q.06-.09.13,0a20.17,20.17,0,0,1,3.49-.25C107.15,71.61,107.44,71.72,107.51,71.36Z"/></g><path class="cls-19" d="M103.45,71.86h-.13l0-.79h.08Z"/><g class="cls-20"><path class="cls-10" d="M213.93,152.48a15.47,15.47,0,0,1-.52-2.85c-2.36-13.23-6.76-25.67-14.48-36.78a56.2,56.2,0,0,0-20.79-18.47,55.5,55.5,0,0,0-17.64-5.45,73.24,73.24,0,0,0-16.13-.35c-.77.06-.75.06-.58.83,1.95,8.81,1.21,17.28-3.46,25.16-3.32,5.59-8.19,9.5-13.89,12.45l-.12.05c-1.3.66-1.32.67-.86,2a16.59,16.59,0,0,0,8.41,9.52,27.7,27.7,0,0,0,10.45,3c5.62.56,11.25.26,16.88.23,6.56,0,13.12-.23,19.69-.38,2.06,0,4.12-.26,6.19-.22A40.71,40.71,0,0,1,204.19,145a23.58,23.58,0,0,1,9.49,8c.34,0,.08-.31.25-.38Z"/></g></g></g></svg>