<svg xmlns="http://www.w3.org/2000/svg" xmlns:xlink="http://www.w3.org/1999/xlink" viewBox="0 0 275.62 366.23"><defs><style>.cls-1{mask:url(#mask);}.cls-2{fill:#fff;}.cls-3{font-size:31.3px;font-family:Raleway-Medium, Raleway;letter-spacing:0.13em;}.cls-3,.cls-5{fill:#959494;}.cls-4{letter-spacing:0.2em;}.cls-6{mask:url(#mask-2);}.cls-7{fill:#138a8b;}.cls-8{fill:#5b9c9e;}.cls-9{fill:#69a3a5;}.cls-10{fill:#7baaad;}.cls-11{fill:#5f9d9f;}.cls-12{fill:#aac5c7;}.cls-13{fill:#9fbfc1;}.cls-14{fill:#959594;}.cls-15{fill:#959595;}.cls-16{fill:#969595;}.cls-17{fill:#949493;}.cls-18{filter:url(#luminosity-invert-noclip-2);}.cls-19{filter:url(#luminosity-invert-noclip);}</style><filter id="luminosity-invert-noclip" x="38.51" y="-6368" width="184.71" height="32766" filterUnits="userSpaceOnUse" color-interpolation-filters="sRGB"><feColorMatrix values="-1 0 0 0 1 0 -1 0 0 1 0 0 -1 0 1 0 0 0 1 0" result="invert"/><feFlood flood-color="#fff" result="bg"/><feBlend in="invert" in2="bg"/></filter><mask id="mask" x="38.51" y="-6368" width="184.71" height="32766" maskUnits="userSpaceOnUse"><g class="cls-19"/></mask><filter id="luminosity-invert-noclip-2" x="26.26" y="0" width="209.26" height="280.63" filterUnits="userSpaceOnUse" color-interpolation-filters="sRGB"><feColorMatrix values="-1 0 0 0 1 0 -1 0 0 1 0 0 -1 0 1 0 0 0 1 0" result="invert"/><feFlood flood-color="#fff" result="bg"/><feBlend in="invert" in2="bg"/></filter><mask id="mask-2" x="26.26" y="0" width="209.26" height="280.63" maskUnits="userSpaceOnUse"><g class="cls-18"><g class="cls-1"><path class="cls-2" d="M133.17,268.06a140.93,140.93,0,0,1-19.27-1,1.71,1.71,0,0,1-.3-1.27q0-18.94,0-37.88a3.63,3.63,0,0,1,1-2.42c3.31-4,6.63-7.94,10-11.87a5.34,5.34,0,0,0,1.46-4c-.11-2.2,0-4.41,0-6.62,0-.47-.08-1,.31-1.37a27.82,27.82,0,0,1,4,4.29,5.88,5.88,0,0,0,6.07,2.25,5.78,5.78,0,0,0,4.7-4.43,6.26,6.26,0,0,0-1.39-5.8c-.45-.55-1.28-1.2-1.2-1.68.11-.64,1.12-.9,1.76-1.29a83.57,83.57,0,0,1,8.22-4.55,2.45,2.45,0,0,1,.32,1.78q0,14.08,0,28.16,0,22.31,0,44.61a2.91,2.91,0,0,1-.3,1.9c-2.9.46-5.83.66-8.76.87-1.18.07-1.29,0-1.29-1.11,0-6.87,0-13.73,0-20.6a1.6,1.6,0,0,1,1.21-1.67,7.94,7.94,0,0,0,5.3-6.59,8.1,8.1,0,0,0-6.26-8.86,7.85,7.85,0,0,0-7.91,2.72,7.66,7.66,0,0,0-1.38,8,7.8,7.8,0,0,0,4.47,4.63c1.36.59,1.44.65,1.44,2.14q0,10,0,20.08c0,.24,0,.48,0,.72,0,.58-.27.88-.9.83A3.5,3.5,0,0,0,133.17,268.06Zm-46.73-9.34q0-27.24,0-54.49a2.33,2.33,0,0,0-1.63-2.58,4.72,4.72,0,0,1-2.49-6.16,4.87,4.87,0,0,1,5.85-2.87,5,5,0,0,1,3.56,4.4,4.87,4.87,0,0,1-3,4.69,2.17,2.17,0,0,0-1.55,2.43c.06,2.76,0,5.52,0,8.29q0,23.41,0,46.82c0,.61-.13,1.26.36,1.78a102.72,102.72,0,0,0,10.76,3.19c.57.1.6-.34.67-.7a8.44,8.44,0,0,0,.05-1.55q0-24.32,0-48.65,0-12.63,0-25.25a2.6,2.6,0,0,0-.32-1.79c-.23-.08-.45-.17-.68-.24a99.63,99.63,0,0,0-21.65-3.85c-.58.56-.38,1.3-.38,2q0,22.51,0,45,0,12.78,0,25.56a2.62,2.62,0,0,0,.33,1.79,80.78,80.78,0,0,0,9.56,3.95C86.71,260.05,86.44,259.32,86.44,258.72Zm75.22,4.67q0-27,0-54a2.19,2.19,0,0,0-1.24-2.16,3.3,3.3,0,0,1-1.58-3.9,3.54,3.54,0,0,1,3.15-2.44,3.41,3.41,0,0,1,3.33,2.33,3.17,3.17,0,0,1-1.36,3.88c-1.34.68-1.52,1.64-1.52,2.95q0,19.16,0,38.32,0,7.2,0,14.39c0,.54-.12,1.12.37,1.55a68.25,68.25,0,0,0,8.9-2.23,2.34,2.34,0,0,0,.27-1.5c0-2.59,0-5.17,0-7.76q0-27.53,0-55.06a4.44,4.44,0,0,0-1.12-3.2c-2.48-2.78-4.89-5.62-7.32-8.44a4,4,0,0,0-1.44-1.3,2.06,2.06,0,0,0-.5,0,88.61,88.61,0,0,0-11.48,4.7,3.19,3.19,0,0,0-.34,2q0,27.32,0,54.64,0,9.31,0,18.63a2.47,2.47,0,0,0,.34,1.78,112.63,112.63,0,0,0,11.15-1.9A1.67,1.67,0,0,0,161.66,263.39ZM67.15,250c0-6.35,0-12.7,0-19.05a2.6,2.6,0,0,0-1.61-2.75,5.11,5.11,0,0,1,4.71-9.06,4.72,4.72,0,0,1,2.88,4.34,4.79,4.79,0,0,1-2.74,4.83,2.14,2.14,0,0,0-1.4,2.15c0,7.07,0,14.15,0,21.23a1.92,1.92,0,0,0,.28,1.29,41.45,41.45,0,0,0,5.56,2.85c.57-.57.38-1.3.38-2q0-29.29,0-58.58c0-3.83,0-7.66,0-11.49,0-.57.11-1.19-.37-1.66a50.3,50.3,0,0,0-15.62.95,27.65,27.65,0,0,0-11.91,5.47,2.32,2.32,0,0,0-.3,1.29c0,2.28,0,4.55,0,6.83a3,3,0,0,0,.81,2q3.63,4.24,7.32,8.44a3.93,3.93,0,0,1,1,2.81q0,16.45,0,32.9a3.37,3.37,0,0,0,.28,1.81,78.15,78.15,0,0,0,10.19,6.85C67.43,251.23,67.15,250.54,67.15,250Zm125.58,2.68c0-6,0-11.95,0-17.92a4.07,4.07,0,0,1,1.07-2.91c2.35-2.67,4.65-5.38,7-8a4,4,0,0,0,1.08-2.81q0-16.83,0-33.67a3.05,3.05,0,0,0-.27-1.51c-.27-.15-.54-.3-.82-.43a43.65,43.65,0,0,0-18.91-4.09c-.78.54-.53,1.37-.53,2.09q0,32.18,0,64.35c0,3.21,0,6.41,0,9.62,0,.54-.09,1.12.37,1.56a95,95,0,0,0,10.74-4.54A2.69,2.69,0,0,0,192.73,252.71Zm-82.3,13.08a8.21,8.21,0,0,0,0-1.34q0-18.58,0-37.15a4.16,4.16,0,0,1,1.06-2.91c3.42-4,6.73-8,10.16-12a4.78,4.78,0,0,0,1.25-3.47c-.08-3,0-6.07,0-9.11a2.28,2.28,0,0,0-.31-1.49,73.1,73.1,0,0,0-22-11.5c-.79.49-.5,1.3-.5,2q0,34.39,0,68.78c0,1.9,0,3.8,0,5.7a1.86,1.86,0,0,0,.37,1.46c3.09.68,6.18,1.31,9.31,1.77C110.37,266.6,110.38,266.15,110.44,265.79ZM55.14,241.74c0-10.55,0-21.1,0-31.65a3.85,3.85,0,0,0-1-2.71c-2.43-2.73-4.77-5.54-7.21-8.26a3.33,3.33,0,0,1-.9-2.44c0-1.76,0-3.52,0-5.27,0-.44.15-1-.48-1.22a23.11,23.11,0,0,0-5.26,8.56A35.7,35.7,0,0,0,39.43,218c2.12,10.2,6.9,18.82,15.24,25.28C55.37,242.94,55.14,242.27,55.14,241.74Zm147.75-53.24q0,16.46,0,32.92a3.45,3.45,0,0,1-.88,2.44c-2.48,2.87-5,5.72-7.45,8.61a2.77,2.77,0,0,0-.79,1.85q0,9,0,18c0,.43-.06.93.48,1.15a72.34,72.34,0,0,0,13.91-9.21,3.22,3.22,0,0,0,.31-1.91q0-20.35,0-40.69a3.58,3.58,0,0,1,1.22-2.91c1.1-1,2.12-2.07,3.15-3.14.33-.34.73-.67.56-1.24a46.14,46.14,0,0,0-10.17-7.64C202.73,187.24,202.89,187.89,202.89,188.49Zm-22.36,69q0-37.07,0-74.13c0-2.1,0-2.12-2.17-1.94a60.44,60.44,0,0,0-13.05,2.35c-.1.53.29.83.56,1.16,2.41,2.89,4.9,5.71,7.37,8.53a4.72,4.72,0,0,1,1.27,3.35q-.05,25.87,0,51.75c0,3.69,0,7.38,0,11.07,0,.53-.13,1.12.36,1.55a32.81,32.81,0,0,0,5.33-1.81A2.68,2.68,0,0,0,180.53,257.52Zm32.78-61.2c-.82.8-1.57,1.66-2.43,2.4a4,4,0,0,0-1.39,3.38c0,12.84,0,25.68,0,38.52a10.08,10.08,0,0,0,0,1.24c0,.34.05.71.48.83a53.81,53.81,0,0,0,5.29-5.67c4.24-5.35,7.19-11.26,7.8-18.17.71-8.06-1.89-15.07-6.85-21.31a6.84,6.84,0,0,0-1.83-1.93A1.81,1.81,0,0,0,213.31,196.32Z"/></g><path class="cls-2" d="M109.34,107.5c4.82,2.54,9.59,4.78,14.42,6.87.52.22.45.62.45,1q0,5.8,0,11.6,0,28.07,0,56.15v1.24c-1.64-.94-3.14-1.84-4.67-2.68a92.59,92.59,0,0,0-25.12-9.3c-1-.22-1.29-.55-1.29-1.58q.06-16.88,0-33.77a2.18,2.18,0,0,1,.7-1.71c5-4.91,9.88-9.85,14.83-14.76a2.06,2.06,0,0,0,.67-1.62C109.32,115.19,109.34,111.43,109.34,107.5Z"/><path class="cls-2" d="M151.19,120.6v1.19q0,26.36,0,52.72a1.42,1.42,0,0,1-1,1.57A110.34,110.34,0,0,0,131.48,186l-1,.67c-.32-.33-.17-.69-.17-1q0-21.65,0-43.3a1.74,1.74,0,0,1,.47-1.4q10-10,20.06-20.08C150.86,120.85,150.95,120.8,151.19,120.6Z"/><path class="cls-2" d="M155.54,174v-1q0-11.07,0-22.15c0-.28-.45-1.18.62-.72.15.07.57-.43.84-.69l16.2-16.15c.26-.26.53-.51.83-.79.26.35.14.71.14,1,0,11.66,0,23.32,0,35,0,.95-.29,1.18-1.19,1.29a83.52,83.52,0,0,0-16.75,4Z"/></g></mask></defs><title>wonderbeans</title><g id="Layer_2" data-name="Layer 2"><g id="Layer_1-2" data-name="Layer 1"><text class="cls-3" transform="translate(0 359.19)">W<tspan class="cls-4" x="36.97" y="0">onderbeans</tspan></text><path class="cls-5" d="M0,324.91A33.91,33.91,0,0,1,2.58,311c3.44-7.9,9.72-12.33,17.9-14.34a31.44,31.44,0,0,1,7.59-.88c18,0,36,.07,54,0A58.13,58.13,0,0,0,109,289.42a3.27,3.27,0,0,1,2.1-.31,137.35,137.35,0,0,0,29.64,1.21,127.64,127.64,0,0,0,15.34-1.93,2.66,2.66,0,0,1,1.94.35,56.71,56.71,0,0,0,24.7,6.89c2.79.17,5.57.17,8.35.18,16.45,0,32.91,0,49.36,0a28.42,28.42,0,0,1,19.08,6.73c4.73,4.06,7.12,9.39,8.15,15.41a35.63,35.63,0,0,1,.56,6.95Z"/><g class="cls-6"><path class="cls-7" d="M26.42,205.51c.86-9.89,4.39-18.54,11.84-25.33,5.43-4.94,11.93-7.72,19-9.25a56.12,56.12,0,0,1,9.23-1.18c.87,0,1-.36,1-1.09,0-9,0-18,0-27a2.41,2.41,0,0,1,.77-1.9c5.69-5.64,11.34-11.31,17-17a2.07,2.07,0,0,0,.68-1.62q0-6.63,0-13.26a2.07,2.07,0,0,0-.69-1.62Q72.18,93.22,59.1,80.14a2.3,2.3,0,0,1-.74-1.8c0-8.25,0-16.51,0-24.76a1.37,1.37,0,0,0-.72-1.41,5.68,5.68,0,0,1-2.42-7A5.79,5.79,0,0,1,66.45,47a5.7,5.7,0,0,1-4.5,5.89c-.7.16-.92.4-.92,1.14,0,7.8,0,15.61,0,23.41a1.62,1.62,0,0,0,.43,1.31q12.07,12,24.11,24.08a1.42,1.42,0,0,0,.18.13c.33-.23.16-.56.16-.84,0-4.9,0-9.81,0-14.71a2,2,0,0,0-.64-1.53C81.2,81.76,77.11,77.64,73,73.56a2.08,2.08,0,0,1-.67-1.63c0-9.25,0-18.51,0-27.76a1.62,1.62,0,0,0-.93-1.7,5.66,5.66,0,0,1-2.56-6.87A5.8,5.8,0,0,1,80.11,37a5.74,5.74,0,0,1-4.22,6c-.7.19-.91.45-.91,1.18Q75,57.6,75,71a1.86,1.86,0,0,0,.63,1.44c4.09,4.06,8.16,8.15,12.26,12.21a2.29,2.29,0,0,1,.77,1.8q0,17.87,0,35.74a2.29,2.29,0,0,1-.76,1.79q-8.53,8.46-17,17a2.07,2.07,0,0,0-.7,1.61q0,13.05,0,26.1c0,.88.27,1.07,1.1,1.07a106.45,106.45,0,0,1,18.21,1.73c1,.17,1-.09,1-.92,0-11.46,0-22.93,0-34.39a2.51,2.51,0,0,1,.83-2c4.91-4.86,9.78-9.76,14.68-14.62a2.17,2.17,0,0,0,.7-1.72q0-5.49,0-11a1.36,1.36,0,0,0-.71-1.33c-3.48-2.24-3.46-2.25-3.46-6.35q0-21.49,0-43c0-.84.15-1.18,1.08-1.29,2.94-.36,5.86-.89,8.8-1.31.62-.09.86-.27.86-.95q0-17.56,0-35.12a1.08,1.08,0,0,0-.63-1.15,8.37,8.37,0,0,1-4.87-8.51,8.55,8.55,0,0,1,6.2-7.51c.21-.07.51,0,.6-.32h3.32c.33.35.81.3,1.21.44a8.67,8.67,0,0,1,5.81,7.5,8.47,8.47,0,0,1-4.81,8.35,1.28,1.28,0,0,0-.8,1.43c0,13.26,0,26.52,0,39.78,0,.93-.27,1.23-1.16,1.34-2.91.38-5.8.87-8.7,1.25-.8.11-.88.5-.88,1.18,0,11.84.13,23.69,0,35.53,0,2.55.7,3.91,3,5,3.2,1.51,6.31,3.24,9.7,4.79v-1.2c0-6.25,0-12.5,0-18.75A2.06,2.06,0,0,1,121.8,85c2.71-2.67,5.37-5.38,8.07-8a2,2,0,0,0,.64-1.54q0-12,0-23.93a1.2,1.2,0,0,0-.84-1.3,5.72,5.72,0,0,1-3.13-6.72,5.8,5.8,0,0,1,11.36.73A5.74,5.74,0,0,1,134,50.42c-.71.23-.85.55-.85,1.23,0,8.25,0,16.51,0,24.76a2.17,2.17,0,0,1-.72,1.71c-2.68,2.64-5.32,5.32-8,8a2,2,0,0,0-.66,1.52q0,9.63,0,19.27a1.16,1.16,0,0,0,.86,1.29c1.57.62,3.09,1.37,4.66,2a1.27,1.27,0,0,1,1,1.42c0,7.7,0,15.4,0,23.1v1.17c.45,0,.61-.37.83-.59,2.54-2.54,5.07-5.09,7.62-7.61a2.07,2.07,0,0,0,.67-1.62c0-11.05,0-22.1,0-33.15a2.13,2.13,0,0,1,.71-1.71c1.5-1.43,2.93-2.93,4.43-4.36A1.51,1.51,0,0,0,145,85a5.66,5.66,0,0,1,2.42-6.4,5.8,5.8,0,1,1,2.75,10.66,5.19,5.19,0,0,1-2.63-.85.68.68,0,0,0-1,.12c-1.33,1.36-2.68,2.69-4,4a1.17,1.17,0,0,0-.4.9q0,15.18,0,30.35c0,.06.05.11.12.25.28-.26.55-.5.81-.75q9.3-9.31,18.6-18.61a2.31,2.31,0,0,0,.74-1.81q0-13.52,0-27a2.2,2.2,0,0,0-.73-1.71c-4.16-4.14-8.3-8.31-12.47-12.44a2.3,2.3,0,0,1-.73-1.81c0-11.29,0-22.58,0-33.88a1.71,1.71,0,0,0-1-1.78,7.37,7.37,0,0,1-3.32-8.92,7.46,7.46,0,0,1,14.48,2A7.42,7.42,0,0,1,153,25c-.71.17-.84.46-.84,1.11q0,16.21,0,32.43a1.85,1.85,0,0,0,.61,1.44c4.21,4.19,8.39,8.41,12.6,12.59a2.08,2.08,0,0,1,.7,1.61q0,15.23,0,30.46a2.07,2.07,0,0,1-.69,1.62c-3,3-6,6.07-9.1,9.07a2.52,2.52,0,0,0-.82,2c0,8.91,0,17.82,0,26.73,0,.37,0,.75,0,1.14.42,0,.56-.33.76-.53q8.63-8.59,17.25-17.18a2.08,2.08,0,0,0,.66-1.63q0-29.32,0-58.63a2.18,2.18,0,0,0-.7-1.72c-3.74-3.68-7.44-7.41-11.17-11.1a2.37,2.37,0,0,1-.81-1.88c0-2.93,0-5.87,0-8.81a1.29,1.29,0,0,0-.71-1.31,5.69,5.69,0,0,1-2.44-7,5.8,5.8,0,0,1,11.22,1.76,5.68,5.68,0,0,1-4.48,5.9c-.78.18-.93.51-.92,1.24,0,2.45,0,4.9,0,7.35a1.82,1.82,0,0,0,.6,1.44c3.76,3.72,7.47,7.47,11.24,11.17a2.61,2.61,0,0,1,.83,2.08q0,28.23,0,56.46c0,.36,0,.73,0,1.29.37-.35.59-.55.8-.76q4.73-4.72,9.47-9.43a2,2,0,0,0,.67-1.52q0-12,0-24A1.35,1.35,0,0,0,187,87a7.4,7.4,0,0,1-3.29-8.94,7.46,7.46,0,0,1,14.48,2.13,7.37,7.37,0,0,1-5.83,7.63c-.73.16-.81.51-.81,1.13,0,8.32,0,16.64,0,25a2.07,2.07,0,0,1-.68,1.62c-4.44,4.4-8.85,8.83-13.3,13.22a2.4,2.4,0,0,0-.77,1.9q0,18.7,0,37.4c0,1,.22,1.24,1.24,1.17,18.33-1.13,33.69,5.19,46.07,18.67A42.73,42.73,0,0,1,235,210.1a9.82,9.82,0,0,0,.47,2.69v.41a2.12,2.12,0,0,0,0,1.45v3.11c-.23.41-.05.85-.11,1.27s0,.66,0,1a31.59,31.59,0,0,1-2.65,11.85,52.74,52.74,0,0,1-9.91,15.67,77.68,77.68,0,0,1-20,15.56,127.28,127.28,0,0,1-29.68,11.73,171.08,171.08,0,0,1-22.32,4.46c-3.25.42-6.51.7-9.78.94a133.59,133.59,0,0,1-14,.35c-3.82-.11-7.64-.33-11.45-.72-4.43-.46-8.83-1.09-13.21-1.92A138.91,138.91,0,0,1,82,272.44a128,128,0,0,1-17.62-7.75,108.12,108.12,0,0,1-19.57-13.3,52.3,52.3,0,0,1-16-24.32,44.83,44.83,0,0,1-2.48-13.18.44.44,0,0,0-.11-.28v-1a2.69,2.69,0,0,0,0-1.66v-2.49a7,7,0,0,0,.11-1.88A3.92,3.92,0,0,1,26.42,205.51Z"/></g><path class="cls-8" d="M26.44,206.54c0,.64.2,1.29-.18,1.9v-1.86A.11.11,0,0,1,26.44,206.54Z"/><path class="cls-9" d="M26.26,210.92a1.56,1.56,0,0,1,0,1.66Z"/><path class="cls-10" d="M235.52,214.65a1.19,1.19,0,0,1,0-1.45Z"/><path class="cls-11" d="M235.33,219c0-.43-.17-.89.19-1.26V219C235.46,219.09,235.4,219.1,235.33,219Z"/><path class="cls-12" d="M26.44,206.54l-.18,0v-1a.21.21,0,0,1,.17,0Z"/><path class="cls-13" d="M235.33,219l.19,0v1l-.18,0Z"/><path class="cls-14" d="M133.17,268.06a.67.67,0,0,1,.19-.09c1.73-.2,1.73-.2,1.73-1.92,0-6.69,0-13.38,0-20.08a1.15,1.15,0,0,0-.91-1.32,8.36,8.36,0,1,1,5.54,0,1.18,1.18,0,0,0-1,1.35q.05,10.3,0,20.59c0,.8.13,1.25,1,1.15a1,1,0,0,1-.78.15C137,267.73,135.11,268.17,133.17,268.06Z"/><path class="cls-15" d="M109.78,266.49c.67-.18.38-.74.38-1.12q0-19.26,0-38.52a3.45,3.45,0,0,1,.91-2.4q5.55-6.56,11.07-13.14a1.6,1.6,0,0,0,.5-1.09c0-4,0-7.94,0-11.91a33,33,0,0,1,3.74,3.3c0,3.14,0,6.28,0,9.41a2.36,2.36,0,0,1-.6,1.67c-3.81,4.49-7.59,9-11.38,13.53a1.75,1.75,0,0,0-.5,1.19q0,19.71,0,39.42a2,2,0,0,0,0,.21Z"/><path class="cls-15" d="M165.31,183.81c2.79,3.24,5.56,6.5,8.37,9.71a4.24,4.24,0,0,1,1.19,3q-.07,31.57,0,63.14c0,.52,0,1,0,1.55a18.42,18.42,0,0,1-3.12.89q0-24.39,0-48.79c0-5.42,0-10.84,0-16.26a2.58,2.58,0,0,0-.72-1.85c-2.87-3.27-5.71-6.56-8.56-9.85a3.72,3.72,0,0,1-.32-.52A11.74,11.74,0,0,1,165.31,183.81Z"/><path class="cls-14" d="M85.95,260.46c.28-.33.15-.73.15-1.09q0-27.9,0-55.81a1.21,1.21,0,0,0-1-1.42,5.12,5.12,0,0,1-3.41-5.33A5.2,5.2,0,0,1,91.91,196a5.15,5.15,0,0,1-3.47,6.21,1,1,0,0,0-.84,1.15q0,28.83,0,57.67Z"/><path class="cls-14" d="M66.67,251.54c.23-.31.14-.67.14-1,0-6.8,0-13.6,0-20.4a1.23,1.23,0,0,0-.9-1.36,5.46,5.46,0,1,1,4.22,0,1.15,1.15,0,0,0-.81,1.3q0,11.44,0,22.88A16.24,16.24,0,0,1,66.67,251.54Z"/><path class="cls-16" d="M100.61,186.81c-.31.32-.19.72-.19,1.08q0,37.9,0,75.8c0,.34,0,.69.06,1l-2.09-.51c.69-.17.39-.73.39-1.11q0-16.77,0-33.55,0-21.64,0-43.28Z"/><path class="cls-16" d="M150.16,189.59q0,38.53,0,77.05a4.5,4.5,0,0,1-1.64.22q0-38,0-75.94c0-.17,0-.34,0-.52Z"/><path class="cls-15" d="M161.31,264.75q0-20.82,0-41.63c0-4.73,0-9.46,0-14.19a1.06,1.06,0,0,0-.72-1.17,3.68,3.68,0,0,1-2.16-4.42,3.88,3.88,0,0,1,3.71-2.77,3.79,3.79,0,0,1,3.65,3.21,3.66,3.66,0,0,1-2.08,3.91,1.29,1.29,0,0,0-.92,1.45q0,27.6,0,55.2A4.84,4.84,0,0,1,161.31,264.75Z"/><path class="cls-15" d="M203.23,186.72q0,8.59,0,17.18,0,9,0,18a2.54,2.54,0,0,1-.68,1.85c-2.72,3.07-5.38,6.19-8.08,9.29a1.45,1.45,0,0,0-.38,1q0,9.31,0,18.63c0,.27-.06.56.18.77l-1.84.94c0-6.76,0-13.52,0-20.28a2.68,2.68,0,0,1,.68-2c2.56-2.89,5.05-5.84,7.6-8.74a3.23,3.23,0,0,0,.88-2.31q0-17.64,0-35.28Z"/><path class="cls-17" d="M180.19,259.41q0-8.64,0-17.28,0-29.38,0-58.77c0-1.83,0-1.83-1.79-1.91a13.58,13.58,0,0,1,3.49-.13,1.45,1.45,0,0,0-.18,1q0,38.05,0,76.1c0,.17,0,.34,0,.52A3.72,3.72,0,0,1,180.19,259.41Z"/><path class="cls-17" d="M74.89,255.84q0-36.64,0-73.28c0-.14,0-.28,0-.41l1.55,0c0,5,0,10,0,15q0,29.09,0,58.18c0,.38,0,.76,0,1.14A5.32,5.32,0,0,1,74.89,255.84Z"/><path class="cls-15" d="M54.67,243.29c.36-.34.19-.78.19-1.18,0-10.73,0-21.45,0-32.18a3.09,3.09,0,0,0-.87-2.21c-2.51-2.84-5-5.73-7.48-8.57a3,3,0,0,1-.81-2.23c.06-1.93,0-3.86,0-5.79,0-.32.15-.7-.2-1l1.84-1.62c0,2.79,0,5.59,0,8.38a1.68,1.68,0,0,0,.42,1.22c2.75,3.14,5.47,6.3,8.21,9.44a1.82,1.82,0,0,1,.51,1.29q0,17.9,0,35.8Z"/><path class="cls-16" d="M214.41,195.61c-1.24,1.49-2.69,2.76-4,4.13a1.89,1.89,0,0,0-.59,1.46q0,20.27,0,40.53c0,.33-.11.7.22,1l-1.84,1.57q0-21.75,0-43.51a2,2,0,0,1,.66-1.63c1.33-1.26,2.6-2.57,3.89-3.87.26-.26.6-.48.68-.89C213.8,194.72,214.28,195,214.41,195.61Z"/></g></g></svg>